<svg width="64" height="64" viewBox="0 0 64 64" fill="none" xmlns="http://www.w3.org/2000/svg">
<circle cx="32" cy="32" r="32" fill="#4CA2FF"/>
<path fill-rule="evenodd" clip-rule="evenodd" d="M41.6042 28.0995L41.6035 28.1013C43.2721 30.1987 44.2693 32.8551 44.2693 35.7444C44.2693 38.6766 43.2422 41.3691 41.5286 43.4806L41.381 43.6624L41.3419 43.4314C41.3087 43.2349 41.2695 43.0365 41.2241 42.8365C40.3665 39.0593 37.5724 35.8203 32.9735 33.1977C29.868 31.4316 28.0903 29.305 27.6236 26.8887C27.3222 25.3263 27.5463 23.7569 27.9794 22.4127C28.4123 21.0689 29.0563 19.9431 29.6034 19.2653L29.6038 19.2648L31.3928 17.072C31.7065 16.6874 32.2936 16.6874 32.6074 17.072L41.6042 28.0995ZM44.4338 25.9087L44.4342 25.9079L32.4433 11.2105C32.2143 10.9298 31.7857 10.9298 31.5567 11.2105L19.5657 25.9081L19.5661 25.9089L19.5271 25.9574C17.3205 28.7022 16 32.1903 16 35.9874C16 44.8308 23.1633 52 32 52C40.8367 52 48 44.8308 48 35.9874C48 32.1904 46.6795 28.7022 44.473 25.9574L44.4338 25.9087ZM22.4348 28.0522L22.4353 28.0516L23.5078 26.7369L23.5402 26.9797C23.5659 27.1719 23.5971 27.3652 23.634 27.5592C24.328 31.2091 26.807 34.2525 30.9517 36.6096C34.5544 38.665 36.652 41.0286 37.2564 43.6208C37.5086 44.7027 37.5535 45.7671 37.4443 46.6977L37.4375 46.7552L37.3856 46.7807C35.7595 47.577 33.9316 48.0239 31.9997 48.0239C25.2235 48.0239 19.73 42.5263 19.73 35.7444C19.73 32.8326 20.7427 30.157 22.4348 28.0522Z" fill="white"/>
</svg>
