<svg width="65" height="64" viewBox="0 0 65 64" fill="none" xmlns="http://www.w3.org/2000/svg">
<path d="M64.5 32C64.5 49.6704 50.1712 64 32.5008 64C14.8288 64 0.5 49.6704 0.5 32C0.5 14.3296 14.8288 0 32.5008 0C50.1712 0 64.5 14.3296 64.5 32Z" fill="#DD1438"/>
<path d="M43.191 14.9883C42.7479 13.859 42.0045 12.8693 41.1743 12.0395C40.2988 11.2236 39.2799 10.5734 38.1679 10.1211C37.4481 9.83311 36.6927 9.64137 35.9218 9.55095C33.1654 9.15175 30.2617 9.99821 28.1554 12.1088C25.7237 14.541 24.8692 18.1015 25.9419 21.4162V21.4486C25.2682 21.8692 24.651 22.3728 24.1053 22.9474C23.2592 23.8345 22.5737 24.8658 22.1296 25.9951C21.6946 27.128 21.4763 28.3314 21.486 29.5435C21.486 30.7754 21.7444 31.9462 22.2285 33.0347C22.6725 34.164 23.416 35.1537 24.2452 35.9835C25.1207 36.7994 26.1396 37.4496 27.2516 37.9019C28.3401 38.3455 29.5145 38.546 30.7019 38.546C30.534 38.546 30.3689 38.5377 30.2048 38.5303C31.4844 38.5992 32.7642 38.3979 33.9594 37.9397C35.1545 37.4815 36.2377 36.7769 37.1372 35.8726C38.3317 34.6868 39.1724 33.1971 39.5666 31.568C39.9608 29.9389 39.8932 28.2335 39.3712 26.6401C40.0896 26.2096 40.7446 25.6832 41.3179 25.0756C42.164 24.1885 42.8505 23.1572 43.2936 22.028C43.7292 20.8951 43.948 19.6917 43.9391 18.4795C43.9402 17.2771 43.687 16.0878 43.1956 14.9883M35.2231 15.6453C35.1588 15.3556 35.1284 15.0594 35.1327 14.7628C35.4657 14.8201 35.7819 14.918 36.0981 15.0493C36.5421 15.2341 36.9283 15.5344 37.2277 15.8791C37.515 16.2367 37.7696 16.623 37.9133 17.0665C38.07 17.5101 38.1148 17.9537 38.1148 18.3972C38.065 19.2397 37.7072 20.0353 37.1083 20.6354L35.2241 15.6499L35.2231 15.6453ZM37.376 21.3423C37.4329 21.2887 37.4907 21.2351 37.5402 21.1732C37.9254 20.7712 38.1679 20.3443 38.3694 19.8425C38.5709 19.3416 38.6119 18.7992 38.6119 18.3113C38.6119 17.7688 38.4683 17.28 38.2668 16.8364C38.0653 16.3929 37.7249 15.99 37.3797 15.6499C37.0346 15.3496 36.5906 15.0493 36.1475 14.906C35.8276 14.7914 35.4778 14.7415 35.1252 14.7175C35.1391 14.1404 35.2865 13.5742 35.5561 13.0625C35.9582 13.1401 36.3443 13.2593 36.7184 13.4321C37.404 13.7315 37.9497 14.1751 38.4347 14.6639C38.8787 15.2064 39.2807 15.7932 39.5233 16.4382C39.7658 17.0832 39.8684 17.7568 39.8684 18.4545C39.8684 19.1531 39.7247 19.8425 39.4253 20.4302C39.1794 21.0484 38.7928 21.6022 38.2957 22.0483C38.1351 22.1922 37.965 22.3252 37.7864 22.4466L37.3713 21.346L37.376 21.3423ZM38.0448 23.1119C38.3014 22.922 38.5445 22.7148 38.7724 22.4918C39.2733 21.9494 39.7164 21.26 39.9589 20.5734C40.2583 19.8305 40.3609 19.0875 40.3609 18.3556C40.3609 17.6256 40.1762 16.8817 39.8731 16.1961C39.5759 15.5244 39.1425 14.9205 38.5998 14.4218C38.0569 13.9367 37.4702 13.5347 36.7837 13.2917C36.3964 13.1582 35.9963 13.0647 35.5897 13.0126C35.7613 12.6965 35.9712 12.4045 36.2296 12.1421C36.4311 11.9406 36.6531 11.7688 36.8826 11.6209C37.0672 11.6856 37.2482 11.7595 37.4245 11.8427C38.2818 12.2039 39.0528 12.7398 39.6874 13.4155C40.3329 14.0605 40.817 14.9023 41.1622 15.7312C41.5073 16.6184 41.6509 17.5471 41.6509 18.4342C41.6118 19.3483 41.413 20.2487 41.0633 21.0956C40.7182 21.8838 40.1771 22.6111 39.5317 23.2561C39.2002 23.588 38.8326 23.8824 38.4356 24.1339L38.0448 23.1036V23.1119ZM28.4306 36.3698C28.2857 36.3154 28.1432 36.2549 28.0034 36.1886C27.1461 35.8274 26.375 35.2916 25.7405 34.6159C25.095 33.9708 24.6109 33.129 24.2657 32.2955C23.9381 31.4316 23.7737 30.5153 23.7807 29.5925C23.8179 28.6782 24.0168 27.7774 24.3683 26.9312C24.7135 26.1429 25.2554 25.4157 25.9009 24.7716C26.2067 24.4639 26.5436 24.1883 26.9064 23.9491L27.3047 24.9841C27.0776 25.156 26.8622 25.3428 26.6602 25.5432C26.1593 26.0856 25.7153 26.7759 25.4737 27.4616C25.1733 28.2045 25.0707 28.9484 25.0707 29.6794C25.0707 30.4094 25.2554 31.1533 25.5595 31.8399C25.8567 32.5115 26.2901 33.1154 26.8327 33.6141C27.3747 34.0984 27.9614 34.5013 28.6517 34.7434C29.0015 34.8663 29.3671 34.9522 29.7328 35.0058C29.5639 35.3095 29.3536 35.5888 29.1078 35.8356C28.9054 36.0381 28.6793 36.2159 28.4343 36.3651M28.7095 34.5955C28.0239 34.2952 27.4782 33.8516 26.9932 33.3628C26.5492 32.8213 26.1509 32.2336 25.9046 31.5885C25.6683 30.9424 25.5514 30.2594 25.5595 29.5722C25.5595 28.8745 25.7031 28.1842 26.0035 27.5965C26.246 26.9681 26.6471 26.4229 27.1322 25.9793C27.2684 25.8555 27.412 25.7446 27.5594 25.6374L27.9866 26.7556C27.954 26.7879 27.9213 26.8166 27.8887 26.8535C27.5025 27.2518 27.26 27.6834 27.0585 28.1842C26.857 28.6851 26.816 29.2275 26.816 29.7164C26.816 30.2616 26.9596 30.7467 27.1611 31.1903C27.3626 31.6338 27.703 32.0367 28.0482 32.3777C28.3933 32.6771 28.8373 32.9774 29.2804 33.1207C29.5761 33.2233 29.8923 33.2778 30.2169 33.3018C30.1909 33.8764 30.035 34.4379 29.7608 34.9448C29.3983 34.8675 29.0457 34.7503 28.7095 34.5955ZM30.1432 32.3648C30.2048 32.6605 30.2253 32.9562 30.2169 33.2482C29.9154 33.188 29.621 33.0972 29.3382 32.9774C28.8942 32.7926 28.508 32.4923 28.2086 32.1476C27.9213 31.79 27.6667 31.4037 27.523 30.9602C27.3663 30.5166 27.3215 30.073 27.3215 29.6295C27.3695 28.8202 27.7022 28.0531 28.2618 27.4616L30.1432 32.3648ZM24.4719 35.8273C23.6249 34.9818 23.0419 34.0078 22.5979 32.9239C22.2127 31.8926 22.0103 30.706 22.0103 29.5768C22.0681 28.4467 22.3106 27.3174 22.7546 26.2871C23.1977 25.2429 23.8833 24.3114 24.6724 23.5268C25.1522 23.0515 25.6903 22.6377 26.274 22.295L26.5781 23.0833C26.1136 23.3873 25.6826 23.7283 25.3048 24.1432C24.6163 24.8649 24.0814 25.7166 23.7322 26.6475C23.387 27.5762 23.2471 28.5659 23.2471 29.5519C23.305 30.5249 23.4896 31.5109 23.8917 32.398C24.2914 33.2851 24.8606 34.0872 25.5679 34.76C26.2633 35.4171 27.0788 35.9368 27.9707 36.2912C28.0976 36.3411 28.2254 36.3818 28.3532 36.4271C27.7695 36.7696 27.1079 36.9603 26.4298 36.9815C26.1882 36.986 25.947 36.9611 25.7115 36.9076C25.267 36.5889 24.8532 36.2301 24.4756 35.8356M42.6863 21.7489C42.2423 22.7913 41.5567 23.7237 40.7676 24.5082C40.2617 25.0113 39.6901 25.4452 39.0681 25.7982L38.7724 25.0128C39.2759 24.7006 39.7357 24.324 40.1398 23.8928C40.8254 23.1609 41.3711 22.319 41.7125 21.3866C42.0576 20.4589 42.1976 19.4692 42.1976 18.4832C42.1397 17.5101 41.955 16.5241 41.5521 15.637C40.7555 13.8632 39.2927 12.4667 37.4739 11.7438C37.3072 11.6792 37.1372 11.6231 36.9646 11.5756C37.7958 11.0812 38.787 10.9224 39.7331 11.1321C40.1809 11.4518 40.595 11.8131 40.9644 12.204C41.8114 13.0495 42.3944 14.0189 42.8374 15.1075C43.2236 16.1378 43.4251 17.3253 43.4251 18.4545C43.3682 19.5838 43.1257 20.7176 42.6817 21.7443" fill="white"/>
<mask id="mask0_8385_4127" style="mask-type:alpha" maskUnits="userSpaceOnUse" x="0" y="0" width="65" height="64">
<path d="M64.5 32C64.5 49.6704 50.1712 64 32.5008 64C14.8288 64 0.5 49.6704 0.5 32C0.5 14.3296 14.8288 0 32.5008 0C50.1712 0 64.5 14.3296 64.5 32Z" fill="#DD1438"/>
</mask>
<g mask="url(#mask0_8385_4127)">
<rect x="-0.953735" y="43.6367" width="65.4545" height="20.3636" fill="white"/>
</g>
<path d="M49.1043 46.5164V56.7273H46.617V50.6036L44.3334 56.7273H42.3261L40.0279 50.5891V56.7273H37.5406V46.5164H40.4788L43.3443 53.5854L46.1806 46.5164H49.1043Z" fill="#191B1F"/>
<path d="M35.0474 46.5164L31.4256 56.7273H28.3129L24.691 46.5164H27.3383L29.8692 54.2254L32.4147 46.5164H35.0474Z" fill="#191B1F"/>
<path d="M18.625 48.5091V50.5745H21.9559V52.4945H18.625V54.7345H22.3922V56.7273H16.1377V46.5164H22.3922V48.5091H18.625Z" fill="#191B1F"/>
</svg>
