<svg width="512" height="512" viewBox="0 0 512 512" fill="none" xmlns="http://www.w3.org/2000/svg">
<g clip-path="url(#clip0_8733_728)">
<rect width="512" height="512" rx="64" fill="url(#paint0_linear_8733_728)"/>
<path fill-rule="evenodd" clip-rule="evenodd" d="M51 266.006C51 153.366 142.874 62 256.182 62C369.448 62 461.321 153.366 461.278 266.006C461.278 347.643 413.015 418.081 343.316 450.684L308.272 356.551C339.794 338.519 361.056 304.749 361.056 266.006C361.056 208.411 314.055 161.668 256.139 161.668C198.223 161.668 151.221 208.368 151.221 266.006C151.221 304.749 172.483 338.562 204.007 356.551L168.961 450.684C99.2628 418.081 51 347.686 51 266.006ZM256.181 346.304C271.051 292.773 283.096 280.796 336.924 266.008C283.096 251.22 271.051 239.242 256.181 185.711C241.311 239.242 229.267 251.22 175.439 266.008C229.267 280.796 241.311 292.773 256.181 346.304Z" fill="white"/>
</g>
<defs>
<linearGradient id="paint0_linear_8733_728" x1="60" y1="64" x2="312" y2="346" gradientUnits="userSpaceOnUse">
<stop stop-color="#FEBF4E"/>
<stop offset="1" stop-color="#FC4CD2"/>
</linearGradient>
<clipPath id="clip0_8733_728">
<path d="M0 40C0 17.9086 17.9086 0 40 0H472C494.091 0 512 17.9086 512 40V472C512 494.091 494.091 512 472 512H40C17.9086 512 0 494.091 0 472V40Z" fill="white"/>
</clipPath>
</defs>
</svg>
