<svg width="183" height="183" viewBox="0 0 183 183" fill="none" xmlns="http://www.w3.org/2000/svg">
<rect width="183" height="183" rx="91.5" fill="url(#paint0_linear_8342_4273)"/>
<path d="M60.2264 135.748C58.9452 135.493 57.7821 135.158 56.7559 134.809C56.7559 134.809 56.7559 134.807 56.7559 134.803C41.1571 122.327 39.9567 95.2276 59.9901 82.8008L61.1283 85.7427C48.8818 92.8019 43.4894 109.023 48.6331 122.103C50.841 126.873 54.7345 134.218 60.2264 135.748Z" fill="white"/>
<path d="M74.4692 123.21V123.403C63.5911 122.868 59.1379 108.258 66.9124 101.012L67.8578 103.419C61.4516 109.794 65.4259 121.997 74.4692 123.21Z" fill="white"/>
<path d="M72.9201 129.031L72.7895 129.218C56.4567 127.364 51.5805 104.296 64.5671 94.9414L65.4565 97.1867C53.3594 105.658 58.6212 126.357 72.9201 129.031Z" fill="white"/>
<path d="M68.3811 133.895L68.207 134.119C48.5343 128.217 44.8088 99.2705 62.1677 88.4297L63.2126 91.4027C47.0789 101.516 50.4189 127.912 68.3811 133.895Z" fill="white"/>
<path d="M109.504 46.3351C107.414 45.85 105.915 45.595 103.583 45.8002C101.561 45.9743 99.3222 46.5403 97.2821 47.7221C105.026 49.3454 112.029 52.9901 117.72 58.0777L109.298 66.4556C104.248 62.1267 97.873 59.3279 90.8635 58.7432C90.7577 60.6402 90.9941 62.4439 91.3735 64.0797C104.926 65.6968 115.468 77.2591 115.468 91.2408C115.468 99.3823 111.892 106.703 106.232 111.716C106.139 114.017 105.784 116.536 105.001 119.142C106.319 118.346 107.576 117.457 108.764 116.486L116.992 125.038C110.337 130.729 101.99 134.498 92.8164 135.462C87.5297 139.188 82.1 140.737 77.0435 140.967V140.998H88.1144L88.9665 140.979C116.009 140.519 137.871 118.389 137.871 91.2408C137.871 71.4562 126.266 54.3397 109.504 46.3351ZM113.018 70.1936L121.439 61.8157C127.833 69.0492 131.913 78.3662 132.516 88.6037H120.631C120.065 81.619 117.303 75.2501 113.018 70.1936ZM120.799 121.381L112.558 112.823C117.098 107.685 120.046 101.111 120.631 93.8779H132.516C131.894 104.457 127.559 114.054 120.799 121.381Z" fill="white"/>
<path d="M109.503 46.3348C107.413 45.8559 105.914 45.5947 103.582 45.8061C99.2968 46.1855 94.0039 48.3127 91.771 54.3208C89.7558 59.7319 91.4476 64.9875 92.6853 68.3025C94.8746 74.1863 104.708 100.414 104.708 100.414C104.708 100.414 111.786 119.117 95.7889 133.13C79.7858 147.143 61.6058 139.2 55.8589 134.038C60.6729 137.465 71.4328 135.232 73.4356 125.554C73.9953 122.861 73.6719 120.056 72.6954 117.487L59.3605 82.3775C59.3605 82.3775 51.698 63.7124 69.8282 48.3873C87.9584 33.0621 109.522 46.3348 109.522 46.3348H109.503Z" fill="white"/>
<path d="M94.5195 103.132L89.0586 91.2404L94.5195 79.3547L82.6338 84.8218L70.748 79.361L76.2151 91.2404L70.748 103.126L82.6338 97.6653L94.5195 103.132Z" fill="url(#paint1_linear_8342_4273)"/>
<defs>
<linearGradient id="paint0_linear_8342_4273" x1="1.36346e-06" y1="91.5" x2="183" y2="91.5" gradientUnits="userSpaceOnUse">
<stop stop-color="#8A2BE2"/>
<stop offset="1" stop-color="#FF69B4"/>
</linearGradient>
<linearGradient id="paint1_linear_8342_4273" x1="82.6338" y1="104.942" x2="82.6338" y2="80.0762" gradientUnits="userSpaceOnUse">
<stop stop-color="#8A2BE2"/>
<stop offset="1" stop-color="#FF69B4"/>
</linearGradient>
</defs>
</svg>
